<svg viewBox="0 0 50.00092 50.00092" xmlns="http://www.w3.org/2000/svg" xmlns:xlink="http://www.w3.org/1999/xlink"><mask id="a" height="50.00092" maskUnits="userSpaceOnUse" width="50.00092" x="0" y="0"><path d="m.00046.00046h50v50h-50z" fill="#fff"/></mask><g mask="url(#a)"><path d="m35.66246 35.18746-.05-8.19a12.25849 12.25849 0 0 0 -.247-3.09 1.989 1.989 0 0 0 -.815-1.037 2.54917 2.54917 0 0 0 -1.455-.382 3.281 3.281 0 0 0 -1.78.51 2.88689 2.88689 0 0 0 -1.145 1.505 9.12023 9.12023 0 0 0 -.345 2.954l.047 7.765-4.017.025-.135-22.034 4.017-.025.053 8.505a5.92975 5.92975 0 0 1 7.14-1.838 4.09551 4.09551 0 0 1 1.685 1.33 4.83567 4.83567 0 0 1 .784 1.81 16.46986 16.46986 0 0 1 .228 3.075l.055 9.092zm-15.842.098-.05-8.19a12.39069 12.39069 0 0 0 -.245-3.09 1.986 1.986 0 0 0 -.815-1.037 2.52824 2.52824 0 0 0 -1.452-.383 3.26086 3.26086 0 0 0 -1.783.51 2.84577 2.84577 0 0 0 -1.145 1.503 8.92922 8.92922 0 0 0 -.345 2.957l.042 7.765-4.017.025-.135-22.035 4.022-.025.053 8.505a5.8879 5.8879 0 0 1 4.633-2.35 5.77553 5.77553 0 0 1 2.505.513 4.11272 4.11272 0 0 1 1.69 1.33 4.946 4.946 0 0 1 .785 1.807 16.48178 16.48178 0 0 1 .225 3.077l.055 9.093zm5.027-35.285a25.00047 25.00047 0 1 0 25.153 24.847 25.0019 25.0019 0 0 0 -25.153-24.847z" fill="#df0016"/></g></svg>