<?xml version="1.0" encoding="utf-8"?>
<!-- Generator: Adobe Illustrator 23.0.1, SVG Export Plug-In . SVG Version: 6.00 Build 0)  -->
<svg version="1.1" id="Слой_1" xmlns="http://www.w3.org/2000/svg" xmlns:xlink="http://www.w3.org/1999/xlink" x="0px" y="0px"
	 viewBox="0 0 2500 2389" style="enable-background:new 0 0 2500 2389;" xml:space="preserve">
<path d="M67,294.7c0-76.1,26.6-138.9,79.9-188.4c53.3-49.5,122.6-74.2,207.8-74.2c83.7,0,151.5,24.4,203.3,73.1
	c53.3,50.2,79.9,115.7,79.9,196.4c0,73.1-25.9,134-77.6,182.7C507,534.5,437,559.6,350.2,559.6h-2.3c-83.7,0-151.5-25.1-203.3-75.4
	S67,370.8,67,294.7z M96.7,2293V767.4h507V2293H96.7z M884.6,2293h507v-851.9c0-53.3,6.1-94.4,18.3-123.3
	c21.3-51.8,53.7-95.5,97.1-131.3c43.4-35.8,97.8-53.7,163.3-53.7c170.5,0,255.8,114.9,255.8,344.9V2293h507v-874.7
	c0-225.3-53.3-396.2-159.9-512.7c-106.6-116.5-247.4-174.7-422.5-174.7c-196.4,0-349.4,84.5-459,253.5v4.6h-2.3l2.3-4.6v-217h-507
	c3,48.7,4.6,200.2,4.6,454.5C889.2,1476.2,887.6,1833.2,884.6,2293z"/>
</svg>
